<svg width="512" height="512" viewBox="0 0 512 512" fill="none" xmlns="http://www.w3.org/2000/svg">
<g clip-path="url(#clip0_4427_1694)">
<path d="M404 0H108C48.3532 0 0 48.3532 0 108V404C0 463.647 48.3532 512 108 512H404C463.647 512 512 463.647 512 404V108C512 48.3532 463.647 0 404 0Z" fill="url(#paint0_linear_4427_1694)"/>
<path d="M68.4894 134.887C66.9929 124.239 71.5686 118.167 82.2164 116.67L114.16 112.181L123.311 100.037C126.362 95.9887 131.436 93.4658 138.535 92.4682L218.393 81.2448C229.041 79.7483 235.113 84.324 236.61 94.9718L256.812 238.717C258.308 249.365 253.733 255.437 243.085 256.934L104.663 276.388C94.0154 277.884 87.9433 273.309 86.4468 262.661L68.4894 134.887Z" fill="url(#paint1_linear_4427_1694)"/>
<path opacity="0.5" d="M164.122 143.162L95.9756 152.74C94.2114 152.987 92.9822 154.619 93.2302 156.383C93.4781 158.147 95.1093 159.376 96.8735 159.128L165.02 149.551C166.784 149.303 168.013 147.672 167.765 145.908C167.517 144.143 165.886 142.914 164.122 143.162Z" fill="white"/>
<path opacity="0.35" d="M199.057 159.969L98.9678 174.035C97.2036 174.283 95.9744 175.915 96.2224 177.679C96.4703 179.443 98.1015 180.672 99.8657 180.424L199.955 166.357C201.719 166.11 202.949 164.478 202.701 162.714C202.453 160.95 200.821 159.721 199.057 159.969Z" fill="white"/>
<path opacity="0.35" d="M154.126 188L101.952 195.332C100.188 195.58 98.9588 197.211 99.2067 198.976C99.4547 200.74 101.086 201.969 102.85 201.721L155.024 194.388C156.789 194.14 158.018 192.509 157.77 190.745C157.522 188.981 155.891 187.752 154.126 188Z" fill="white"/>
<path d="M282.143 269.005C283.64 258.357 289.712 253.781 300.36 255.278L332.303 259.767L344.448 250.616C348.496 247.565 354.069 246.539 361.168 247.537L441.026 258.76C451.674 260.257 456.25 266.329 454.753 276.977L434.551 420.722C433.055 431.37 426.983 435.946 416.335 434.449L277.913 414.995C267.265 413.499 262.69 407.427 264.186 396.779L282.143 269.005Z" fill="url(#paint2_linear_4427_1694)"/>
<path opacity="0.5" d="M371.786 303.319L303.64 293.742C301.875 293.494 300.244 294.723 299.996 296.487C299.748 298.252 300.978 299.883 302.742 300.131L370.888 309.708C372.652 309.956 374.283 308.727 374.531 306.962C374.779 305.198 373.55 303.567 371.786 303.319Z" fill="white"/>
<path opacity="0.35" d="M400.737 329.104L300.647 315.038C298.883 314.79 297.252 316.019 297.004 317.783C296.756 319.547 297.985 321.179 299.75 321.426L399.839 335.493C401.603 335.741 403.234 334.512 403.482 332.748C403.73 330.984 402.501 329.352 400.737 329.104Z" fill="white"/>
<path opacity="0.35" d="M376.449 347.406L297.655 336.333C295.891 336.085 294.26 337.314 294.012 339.078C293.764 340.842 294.993 342.473 296.757 342.721L375.551 353.795C377.315 354.043 378.947 352.814 379.195 351.05C379.443 349.286 378.213 347.654 376.449 347.406Z" fill="white"/>
<path d="M374.687 207.264C355.131 173.391 325.317 151.086 285.245 140.349" stroke="#FAFAFA" stroke-width="10.7525" stroke-linecap="round" stroke-linejoin="round"/>
<path d="M289.574 128.486L274.906 139.487L285.907 154.154" stroke="#FAFAFA" stroke-width="10.7525" stroke-linecap="round" stroke-linejoin="round"/>
<path d="M139.01 306.95C158.567 340.823 188.381 363.128 228.453 373.866" stroke="#FAFAFA" stroke-width="10.7525" stroke-linecap="round" stroke-linejoin="round"/>
<path d="M223.734 385.569L238.402 374.569L227.401 359.901" stroke="#FAFAFA" stroke-width="10.7525" stroke-linecap="round" stroke-linejoin="round"/>
</g>
<defs>
<linearGradient id="paint0_linear_4427_1694" x1="0" y1="0" x2="51200" y2="51200" gradientUnits="userSpaceOnUse">
<stop stop-color="#18181B"/>
<stop offset="1" stop-color="#09090B"/>
</linearGradient>
<linearGradient id="paint1_linear_4427_1694" x1="64" y1="102.943" x2="20017.8" y2="14663.4" gradientUnits="userSpaceOnUse">
<stop stop-color="#F472B6"/>
<stop offset="1" stop-color="#EC4899"/>
</linearGradient>
<linearGradient id="paint2_linear_4427_1694" x1="286.633" y1="237.062" x2="15454" y2="19733.5" gradientUnits="userSpaceOnUse">
<stop stop-color="#60A5FA"/>
<stop offset="1" stop-color="#3B82F6"/>
</linearGradient>
<clipPath id="clip0_4427_1694">
<rect width="512" height="512" fill="white"/>
</clipPath>
</defs>
</svg>
